solid OpenSCAD_Model
  facet normal 0.994522 0.104528 0
    outer loop
      vertex 2.4 -4 11.5
      vertex 2.34755 -3.50101 9.5
      vertex 2.34755 -3.50101 11.5
    endloop
  endfacet
  facet normal 0.994522 0.104528 0
    outer loop
      vertex 2.34755 -3.50101 9.5
      vertex 2.4 -4 11.5
      vertex 2.4 -4 9.5
    endloop
  endfacet
  facet normal -0.994522 0.104528 0
    outer loop
      vertex -2.4 -4 9.5
      vertex -2.34755 -3.50101 11.5
      vertex -2.34755 -3.50101 9.5
    endloop
  endfacet
  facet normal -0.994522 0.104528 0
    outer loop
      vertex -2.34755 -3.50101 11.5
      vertex -2.4 -4 9.5
      vertex -2.4 -4 11.5
    endloop
  endfacet
  facet normal 0 1 -0
    outer loop
      vertex 0.250868 -1.61315 9.5
      vertex -0.250868 -1.61315 11.5
      vertex 0.250868 -1.61315 11.5
    endloop
  endfacet
  facet normal 0 1 0
    outer loop
      vertex -0.250868 -1.61315 11.5
      vertex 0.250868 -1.61315 9.5
      vertex -0.250868 -1.61315 9.5
    endloop
  endfacet
  facet normal 0 -1 0
    outer loop
      vertex -0.250868 -6.38685 9.5
      vertex 0.250868 -6.38685 11.5
      vertex -0.250868 -6.38685 11.5
    endloop
  endfacet
  facet normal 0 -1 -0
    outer loop
      vertex 0.250868 -6.38685 11.5
      vertex -0.250868 -6.38685 9.5
      vertex 0.250868 -6.38685 9.5
    endloop
  endfacet
  facet normal 0.743145 0.66913 0
    outer loop
      vertex 1.94164 -2.58932 11.5
      vertex 1.60591 -2.21645 9.5
      vertex 1.60591 -2.21645 11.5
    endloop
  endfacet
  facet normal 0.743145 0.66913 0
    outer loop
      vertex 1.60591 -2.21645 9.5
      vertex 1.94164 -2.58932 11.5
      vertex 1.94164 -2.58932 9.5
    endloop
  endfacet
  facet normal 0.951056 0.309017 0
    outer loop
      vertex 2.34755 -3.50101 11.5
      vertex 2.19251 -3.02383 9.5
      vertex 2.19251 -3.02383 11.5
    endloop
  endfacet
  facet normal 0.951056 0.309017 0
    outer loop
      vertex 2.19251 -3.02383 9.5
      vertex 2.34755 -3.50101 11.5
      vertex 2.34755 -3.50101 9.5
    endloop
  endfacet
  facet normal -0.587785 0.809017 0
    outer loop
      vertex -1.2 -1.92154 9.5
      vertex -1.60591 -2.21645 11.5
      vertex -1.2 -1.92154 11.5
    endloop
  endfacet
  facet normal -0.587785 0.809017 0
    outer loop
      vertex -1.60591 -2.21645 11.5
      vertex -1.2 -1.92154 9.5
      vertex -1.60591 -2.21645 9.5
    endloop
  endfacet
  facet normal -0.207911 0.978148 0
    outer loop
      vertex -0.250868 -1.61315 9.5
      vertex -0.74164 -1.71746 11.5
      vertex -0.250868 -1.61315 11.5
    endloop
  endfacet
  facet normal -0.207911 0.978148 0
    outer loop
      vertex -0.74164 -1.71746 11.5
      vertex -0.250868 -1.61315 9.5
      vertex -0.74164 -1.71746 9.5
    endloop
  endfacet
  facet normal 0.866025 -0.500001 0
    outer loop
      vertex 1.94164 -5.41068 11.5
      vertex 2.19251 -4.97617 9.5
      vertex 2.19251 -4.97617 11.5
    endloop
  endfacet
  facet normal 0.866025 -0.500001 0
    outer loop
      vertex 2.19251 -4.97617 9.5
      vertex 1.94164 -5.41068 11.5
      vertex 1.94164 -5.41068 9.5
    endloop
  endfacet
  facet normal 0.866025 0.500001 0
    outer loop
      vertex 2.19251 -3.02383 11.5
      vertex 1.94164 -2.58932 9.5
      vertex 1.94164 -2.58932 11.5
    endloop
  endfacet
  facet normal 0.866025 0.500001 0
    outer loop
      vertex 1.94164 -2.58932 9.5
      vertex 2.19251 -3.02383 11.5
      vertex 2.19251 -3.02383 9.5
    endloop
  endfacet
  facet normal 0.406737 0.913545 -0
    outer loop
      vertex 1.2 -1.92154 9.5
      vertex 0.74164 -1.71746 11.5
      vertex 1.2 -1.92154 11.5
    endloop
  endfacet
  facet normal 0.406737 0.913545 0
    outer loop
      vertex 0.74164 -1.71746 11.5
      vertex 1.2 -1.92154 9.5
      vertex 0.74164 -1.71746 9.5
    endloop
  endfacet
  facet normal 0.207911 0.978148 -0
    outer loop
      vertex 0.74164 -1.71746 9.5
      vertex 0.250868 -1.61315 11.5
      vertex 0.74164 -1.71746 11.5
    endloop
  endfacet
  facet normal 0.207911 0.978148 0
    outer loop
      vertex 0.250868 -1.61315 11.5
      vertex 0.74164 -1.71746 9.5
      vertex 0.250868 -1.61315 9.5
    endloop
  endfacet
  facet normal 0.587785 0.809017 -0
    outer loop
      vertex 1.60591 -2.21645 9.5
      vertex 1.2 -1.92154 11.5
      vertex 1.60591 -2.21645 11.5
    endloop
  endfacet
  facet normal 0.587785 0.809017 0
    outer loop
      vertex 1.2 -1.92154 11.5
      vertex 1.60591 -2.21645 9.5
      vertex 1.2 -1.92154 9.5
    endloop
  endfacet
  facet normal -0.866025 0.500001 0
    outer loop
      vertex -2.19251 -3.02383 9.5
      vertex -1.94164 -2.58932 11.5
      vertex -1.94164 -2.58932 9.5
    endloop
  endfacet
  facet normal -0.866025 0.500001 0
    outer loop
      vertex -1.94164 -2.58932 11.5
      vertex -2.19251 -3.02383 9.5
      vertex -2.19251 -3.02383 11.5
    endloop
  endfacet
  facet normal -0.743145 0.66913 0
    outer loop
      vertex -1.94164 -2.58932 9.5
      vertex -1.60591 -2.21645 11.5
      vertex -1.60591 -2.21645 9.5
    endloop
  endfacet
  facet normal -0.743145 0.66913 0
    outer loop
      vertex -1.60591 -2.21645 11.5
      vertex -1.94164 -2.58932 9.5
      vertex -1.94164 -2.58932 11.5
    endloop
  endfacet
  facet normal -0.951056 0.309017 0
    outer loop
      vertex -2.34755 -3.50101 9.5
      vertex -2.19251 -3.02383 11.5
      vertex -2.19251 -3.02383 9.5
    endloop
  endfacet
  facet normal -0.951056 0.309017 0
    outer loop
      vertex -2.19251 -3.02383 11.5
      vertex -2.34755 -3.50101 9.5
      vertex -2.34755 -3.50101 11.5
    endloop
  endfacet
  facet normal 0 0 1
    outer loop
      vertex 2.34755 -3.50101 11.5
      vertex 2.34755 -4.49899 11.5
      vertex 2.4 -4 11.5
    endloop
  endfacet
  facet normal 0 0 1
    outer loop
      vertex 2.19251 -3.02383 11.5
      vertex 2.34755 -4.49899 11.5
      vertex 2.34755 -3.50101 11.5
    endloop
  endfacet
  facet normal 0 0 1
    outer loop
      vertex 2.19251 -3.02383 11.5
      vertex 2.19251 -4.97617 11.5
      vertex 2.34755 -4.49899 11.5
    endloop
  endfacet
  facet normal 0 0 1
    outer loop
      vertex 1.94164 -2.58932 11.5
      vertex 2.19251 -4.97617 11.5
      vertex 2.19251 -3.02383 11.5
    endloop
  endfacet
  facet normal 0 0 1
    outer loop
      vertex 1.94164 -2.58932 11.5
      vertex 1.94164 -5.41068 11.5
      vertex 2.19251 -4.97617 11.5
    endloop
  endfacet
  facet normal 0 0 1
    outer loop
      vertex 1.60591 -2.21645 11.5
      vertex 1.94164 -5.41068 11.5
      vertex 1.94164 -2.58932 11.5
    endloop
  endfacet
  facet normal 0 0 1
    outer loop
      vertex 1.60591 -2.21645 11.5
      vertex 1.60591 -5.78355 11.5
      vertex 1.94164 -5.41068 11.5
    endloop
  endfacet
  facet normal 0 0 1
    outer loop
      vertex 1.2 -1.92154 11.5
      vertex 1.60591 -5.78355 11.5
      vertex 1.60591 -2.21645 11.5
    endloop
  endfacet
  facet normal 0 0 1
    outer loop
      vertex 1.2 -1.92154 11.5
      vertex 1.2 -6.07846 11.5
      vertex 1.60591 -5.78355 11.5
    endloop
  endfacet
  facet normal 0 0 1
    outer loop
      vertex 0.74164 -1.71746 11.5
      vertex 1.2 -6.07846 11.5
      vertex 1.2 -1.92154 11.5
    endloop
  endfacet
  facet normal 0 0 1
    outer loop
      vertex 0.74164 -1.71746 11.5
      vertex 0.74164 -6.28254 11.5
      vertex 1.2 -6.07846 11.5
    endloop
  endfacet
  facet normal 0 0 1
    outer loop
      vertex 0.250868 -1.61315 11.5
      vertex 0.74164 -6.28254 11.5
      vertex 0.74164 -1.71746 11.5
    endloop
  endfacet
  facet normal 0 0 1
    outer loop
      vertex 0.250868 -1.61315 11.5
      vertex 0.250868 -6.38685 11.5
      vertex 0.74164 -6.28254 11.5
    endloop
  endfacet
  facet normal -0 0 1
    outer loop
      vertex -0.250868 -1.61315 11.5
      vertex 0.250868 -6.38685 11.5
      vertex 0.250868 -1.61315 11.5
    endloop
  endfacet
  facet normal 0 0 1
    outer loop
      vertex -0.250868 -1.61315 11.5
      vertex -0.250868 -6.38685 11.5
      vertex 0.250868 -6.38685 11.5
    endloop
  endfacet
  facet normal -0 0 1
    outer loop
      vertex -0.74164 -1.71746 11.5
      vertex -0.250868 -6.38685 11.5
      vertex -0.250868 -1.61315 11.5
    endloop
  endfacet
  facet normal 0 0 1
    outer loop
      vertex -0.74164 -1.71746 11.5
      vertex -0.74164 -6.28254 11.5
      vertex -0.250868 -6.38685 11.5
    endloop
  endfacet
  facet normal -0 0 1
    outer loop
      vertex -1.2 -1.92154 11.5
      vertex -0.74164 -6.28254 11.5
      vertex -0.74164 -1.71746 11.5
    endloop
  endfacet
  facet normal 0 0 1
    outer loop
      vertex -1.2 -1.92154 11.5
      vertex -1.2 -6.07846 11.5
      vertex -0.74164 -6.28254 11.5
    endloop
  endfacet
  facet normal -0 0 1
    outer loop
      vertex -1.60591 -2.21645 11.5
      vertex -1.2 -6.07846 11.5
      vertex -1.2 -1.92154 11.5
    endloop
  endfacet
  facet normal 0 0 1
    outer loop
      vertex -1.60591 -2.21645 11.5
      vertex -1.60591 -5.78355 11.5
      vertex -1.2 -6.07846 11.5
    endloop
  endfacet
  facet normal -0 0 1
    outer loop
      vertex -1.94164 -2.58932 11.5
      vertex -1.60591 -5.78355 11.5
      vertex -1.60591 -2.21645 11.5
    endloop
  endfacet
  facet normal 0 0 1
    outer loop
      vertex -1.94164 -2.58932 11.5
      vertex -1.94164 -5.41068 11.5
      vertex -1.60591 -5.78355 11.5
    endloop
  endfacet
  facet normal -0 0 1
    outer loop
      vertex -2.19251 -3.02383 11.5
      vertex -1.94164 -5.41068 11.5
      vertex -1.94164 -2.58932 11.5
    endloop
  endfacet
  facet normal 0 0 1
    outer loop
      vertex -2.19251 -3.02383 11.5
      vertex -2.19251 -4.97617 11.5
      vertex -1.94164 -5.41068 11.5
    endloop
  endfacet
  facet normal -0 0 1
    outer loop
      vertex -2.34755 -3.50101 11.5
      vertex -2.19251 -4.97617 11.5
      vertex -2.19251 -3.02383 11.5
    endloop
  endfacet
  facet normal 0 0 1
    outer loop
      vertex -2.34755 -3.50101 11.5
      vertex -2.34755 -4.49899 11.5
      vertex -2.19251 -4.97617 11.5
    endloop
  endfacet
  facet normal 0 -0 1
    outer loop
      vertex -2.34755 -4.49899 11.5
      vertex -2.34755 -3.50101 11.5
      vertex -2.4 -4 11.5
    endloop
  endfacet
  facet normal -0.406737 0.913545 0
    outer loop
      vertex -0.74164 -1.71746 9.5
      vertex -1.2 -1.92154 11.5
      vertex -0.74164 -1.71746 11.5
    endloop
  endfacet
  facet normal -0.406737 0.913545 0
    outer loop
      vertex -1.2 -1.92154 11.5
      vertex -0.74164 -1.71746 9.5
      vertex -1.2 -1.92154 9.5
    endloop
  endfacet
  facet normal 0.994522 -0.104528 0
    outer loop
      vertex 2.34755 -4.49899 11.5
      vertex 2.4 -4 9.5
      vertex 2.4 -4 11.5
    endloop
  endfacet
  facet normal 0.994522 -0.104528 0
    outer loop
      vertex 2.4 -4 9.5
      vertex 2.34755 -4.49899 11.5
      vertex 2.34755 -4.49899 9.5
    endloop
  endfacet
  facet normal 0 0 -1
    outer loop
      vertex 3.85 -7.85 0
      vertex 2.4 -6.4 0
      vertex 3.85 7.85 0
    endloop
  endfacet
  facet normal 0 0 -1
    outer loop
      vertex 3.85 -7.85 0
      vertex -2.4 -6.4 0
      vertex 2.4 -6.4 0
    endloop
  endfacet
  facet normal -0 0 -1
    outer loop
      vertex -2.4 -6.4 0
      vertex -3.85 -7.85 0
      vertex -2.4 6.4 0
    endloop
  endfacet
  facet normal 0 0 -1
    outer loop
      vertex -3.85 -7.85 0
      vertex -2.4 -6.4 0
      vertex 3.85 -7.85 0
    endloop
  endfacet
  facet normal 0 0 -1
    outer loop
      vertex 2.4 6.4 0
      vertex 3.85 7.85 0
      vertex 2.4 -6.4 0
    endloop
  endfacet
  facet normal 0 0 -1
    outer loop
      vertex -2.4 6.4 0
      vertex 3.85 7.85 0
      vertex 2.4 6.4 0
    endloop
  endfacet
  facet normal 0 0 -1
    outer loop
      vertex -2.4 6.4 0
      vertex -3.85 7.85 0
      vertex 3.85 7.85 0
    endloop
  endfacet
  facet normal 0 0 -1
    outer loop
      vertex -3.85 7.85 0
      vertex -2.4 6.4 0
      vertex -3.85 -7.85 0
    endloop
  endfacet
  facet normal 0.207911 -0.978148 0
    outer loop
      vertex 0.250868 -6.38685 9.5
      vertex 0.74164 -6.28254 11.5
      vertex 0.250868 -6.38685 11.5
    endloop
  endfacet
  facet normal 0.207911 -0.978148 0
    outer loop
      vertex 0.74164 -6.28254 11.5
      vertex 0.250868 -6.38685 9.5
      vertex 0.74164 -6.28254 9.5
    endloop
  endfacet
  facet normal 0.587785 -0.809017 0
    outer loop
      vertex 1.2 -6.07846 9.5
      vertex 1.60591 -5.78355 11.5
      vertex 1.2 -6.07846 11.5
    endloop
  endfacet
  facet normal 0.587785 -0.809017 0
    outer loop
      vertex 1.60591 -5.78355 11.5
      vertex 1.2 -6.07846 9.5
      vertex 1.60591 -5.78355 9.5
    endloop
  endfacet
  facet normal 0.743145 -0.66913 0
    outer loop
      vertex 1.60591 -5.78355 11.5
      vertex 1.94164 -5.41068 9.5
      vertex 1.94164 -5.41068 11.5
    endloop
  endfacet
  facet normal 0.743145 -0.66913 0
    outer loop
      vertex 1.94164 -5.41068 9.5
      vertex 1.60591 -5.78355 11.5
      vertex 1.60591 -5.78355 9.5
    endloop
  endfacet
  facet normal 0.951056 -0.309017 0
    outer loop
      vertex 2.19251 -4.97617 11.5
      vertex 2.34755 -4.49899 9.5
      vertex 2.34755 -4.49899 11.5
    endloop
  endfacet
  facet normal 0.951056 -0.309017 0
    outer loop
      vertex 2.34755 -4.49899 9.5
      vertex 2.19251 -4.97617 11.5
      vertex 2.19251 -4.97617 9.5
    endloop
  endfacet
  facet normal -0.587785 -0.809017 0
    outer loop
      vertex -1.60591 -5.78355 9.5
      vertex -1.2 -6.07846 11.5
      vertex -1.60591 -5.78355 11.5
    endloop
  endfacet
  facet normal -0.587785 -0.809017 -0
    outer loop
      vertex -1.2 -6.07846 11.5
      vertex -1.60591 -5.78355 9.5
      vertex -1.2 -6.07846 9.5
    endloop
  endfacet
  facet normal -0.866025 -0.500001 0
    outer loop
      vertex -1.94164 -5.41068 9.5
      vertex -2.19251 -4.97617 11.5
      vertex -2.19251 -4.97617 9.5
    endloop
  endfacet
  facet normal -0.866025 -0.500001 0
    outer loop
      vertex -2.19251 -4.97617 11.5
      vertex -1.94164 -5.41068 9.5
      vertex -1.94164 -5.41068 11.5
    endloop
  endfacet
  facet normal -0.743145 -0.66913 0
    outer loop
      vertex -1.60591 -5.78355 9.5
      vertex -1.94164 -5.41068 11.5
      vertex -1.94164 -5.41068 9.5
    endloop
  endfacet
  facet normal -0.743145 -0.66913 0
    outer loop
      vertex -1.94164 -5.41068 11.5
      vertex -1.60591 -5.78355 9.5
      vertex -1.60591 -5.78355 11.5
    endloop
  endfacet
  facet normal 0.406737 -0.913545 0
    outer loop
      vertex 0.74164 -6.28254 9.5
      vertex 1.2 -6.07846 11.5
      vertex 0.74164 -6.28254 11.5
    endloop
  endfacet
  facet normal 0.406737 -0.913545 0
    outer loop
      vertex 1.2 -6.07846 11.5
      vertex 0.74164 -6.28254 9.5
      vertex 1.2 -6.07846 9.5
    endloop
  endfacet
  facet normal -0.207911 -0.978148 0
    outer loop
      vertex -0.74164 -6.28254 9.5
      vertex -0.250868 -6.38685 11.5
      vertex -0.74164 -6.28254 11.5
    endloop
  endfacet
  facet normal -0.207911 -0.978148 -0
    outer loop
      vertex -0.250868 -6.38685 11.5
      vertex -0.74164 -6.28254 9.5
      vertex -0.250868 -6.38685 9.5
    endloop
  endfacet
  facet normal -0.951056 -0.309017 0
    outer loop
      vertex -2.19251 -4.97617 9.5
      vertex -2.34755 -4.49899 11.5
      vertex -2.34755 -4.49899 9.5
    endloop
  endfacet
  facet normal -0.951056 -0.309017 0
    outer loop
      vertex -2.34755 -4.49899 11.5
      vertex -2.19251 -4.97617 9.5
      vertex -2.19251 -4.97617 11.5
    endloop
  endfacet
  facet normal -0.994522 -0.104528 0
    outer loop
      vertex -2.34755 -4.49899 9.5
      vertex -2.4 -4 11.5
      vertex -2.4 -4 9.5
    endloop
  endfacet
  facet normal -0.994522 -0.104528 0
    outer loop
      vertex -2.4 -4 11.5
      vertex -2.34755 -4.49899 9.5
      vertex -2.34755 -4.49899 11.5
    endloop
  endfacet
  facet normal -0.406737 -0.913545 0
    outer loop
      vertex -1.2 -6.07846 9.5
      vertex -0.74164 -6.28254 11.5
      vertex -1.2 -6.07846 11.5
    endloop
  endfacet
  facet normal -0.406737 -0.913545 -0
    outer loop
      vertex -0.74164 -6.28254 11.5
      vertex -1.2 -6.07846 9.5
      vertex -0.74164 -6.28254 9.5
    endloop
  endfacet
  facet normal 0.866025 0.500001 0
    outer loop
      vertex 2.19251 4.97617 11.5
      vertex 1.94164 5.41068 9.5
      vertex 1.94164 5.41068 11.5
    endloop
  endfacet
  facet normal 0.866025 0.500001 0
    outer loop
      vertex 1.94164 5.41068 9.5
      vertex 2.19251 4.97617 11.5
      vertex 2.19251 4.97617 9.5
    endloop
  endfacet
  facet normal 0.743145 0.66913 0
    outer loop
      vertex 1.94164 5.41068 11.5
      vertex 1.60591 5.78355 9.5
      vertex 1.60591 5.78355 11.5
    endloop
  endfacet
  facet normal 0.743145 0.66913 0
    outer loop
      vertex 1.60591 5.78355 9.5
      vertex 1.94164 5.41068 11.5
      vertex 1.94164 5.41068 9.5
    endloop
  endfacet
  facet normal 0.207911 0.978148 -0
    outer loop
      vertex 0.74164 6.28254 9.5
      vertex 0.250868 6.38685 11.5
      vertex 0.74164 6.28254 11.5
    endloop
  endfacet
  facet normal 0.207911 0.978148 0
    outer loop
      vertex 0.250868 6.38685 11.5
      vertex 0.74164 6.28254 9.5
      vertex 0.250868 6.38685 9.5
    endloop
  endfacet
  facet normal -0.587785 0.809017 0
    outer loop
      vertex -1.2 6.07846 9.5
      vertex -1.60591 5.78355 11.5
      vertex -1.2 6.07846 11.5
    endloop
  endfacet
  facet normal -0.587785 0.809017 0
    outer loop
      vertex -1.60591 5.78355 11.5
      vertex -1.2 6.07846 9.5
      vertex -1.60591 5.78355 9.5
    endloop
  endfacet
  facet normal 0.994522 -0.104528 0
    outer loop
      vertex 2.34755 3.50101 11.5
      vertex 2.4 4 9.5
      vertex 2.4 4 11.5
    endloop
  endfacet
  facet normal 0.994522 -0.104528 0
    outer loop
      vertex 2.4 4 9.5
      vertex 2.34755 3.50101 11.5
      vertex 2.34755 3.50101 9.5
    endloop
  endfacet
  facet normal 0.406737 -0.913545 0
    outer loop
      vertex 0.74164 1.71746 9.5
      vertex 1.2 1.92154 11.5
      vertex 0.74164 1.71746 11.5
    endloop
  endfacet
  facet normal 0.406737 -0.913545 0
    outer loop
      vertex 1.2 1.92154 11.5
      vertex 0.74164 1.71746 9.5
      vertex 1.2 1.92154 9.5
    endloop
  endfacet
  facet normal 0.951056 0.309017 0
    outer loop
      vertex 2.34755 4.49899 11.5
      vertex 2.19251 4.97617 9.5
      vertex 2.19251 4.97617 11.5
    endloop
  endfacet
  facet normal 0.951056 0.309017 0
    outer loop
      vertex 2.19251 4.97617 9.5
      vertex 2.34755 4.49899 11.5
      vertex 2.34755 4.49899 9.5
    endloop
  endfacet
  facet normal 0.587785 0.809017 -0
    outer loop
      vertex 1.60591 5.78355 9.5
      vertex 1.2 6.07846 11.5
      vertex 1.60591 5.78355 11.5
    endloop
  endfacet
  facet normal 0.587785 0.809017 0
    outer loop
      vertex 1.2 6.07846 11.5
      vertex 1.60591 5.78355 9.5
      vertex 1.2 6.07846 9.5
    endloop
  endfacet
  facet normal -0.207911 0.978148 0
    outer loop
      vertex -0.250868 6.38685 9.5
      vertex -0.74164 6.28254 11.5
      vertex -0.250868 6.38685 11.5
    endloop
  endfacet
  facet normal -0.207911 0.978148 0
    outer loop
      vertex -0.74164 6.28254 11.5
      vertex -0.250868 6.38685 9.5
      vertex -0.74164 6.28254 9.5
    endloop
  endfacet
  facet normal 0.406737 0.913545 -0
    outer loop
      vertex 1.2 6.07846 9.5
      vertex 0.74164 6.28254 11.5
      vertex 1.2 6.07846 11.5
    endloop
  endfacet
  facet normal 0.406737 0.913545 0
    outer loop
      vertex 0.74164 6.28254 11.5
      vertex 1.2 6.07846 9.5
      vertex 0.74164 6.28254 9.5
    endloop
  endfacet
  facet normal -0.994522 -0.104528 0
    outer loop
      vertex -2.34755 3.50101 9.5
      vertex -2.4 4 11.5
      vertex -2.4 4 9.5
    endloop
  endfacet
  facet normal -0.994522 -0.104528 0
    outer loop
      vertex -2.4 4 11.5
      vertex -2.34755 3.50101 9.5
      vertex -2.34755 3.50101 11.5
    endloop
  endfacet
  facet normal -0.951056 0.309017 0
    outer loop
      vertex -2.34755 4.49899 9.5
      vertex -2.19251 4.97617 11.5
      vertex -2.19251 4.97617 9.5
    endloop
  endfacet
  facet normal -0.951056 0.309017 0
    outer loop
      vertex -2.19251 4.97617 11.5
      vertex -2.34755 4.49899 9.5
      vertex -2.34755 4.49899 11.5
    endloop
  endfacet
  facet normal -0.743145 0.66913 0
    outer loop
      vertex -1.94164 5.41068 9.5
      vertex -1.60591 5.78355 11.5
      vertex -1.60591 5.78355 9.5
    endloop
  endfacet
  facet normal -0.743145 0.66913 0
    outer loop
      vertex -1.60591 5.78355 11.5
      vertex -1.94164 5.41068 9.5
      vertex -1.94164 5.41068 11.5
    endloop
  endfacet
  facet normal -0.406737 0.913545 0
    outer loop
      vertex -0.74164 6.28254 9.5
      vertex -1.2 6.07846 11.5
      vertex -0.74164 6.28254 11.5
    endloop
  endfacet
  facet normal -0.406737 0.913545 0
    outer loop
      vertex -1.2 6.07846 11.5
      vertex -0.74164 6.28254 9.5
      vertex -1.2 6.07846 9.5
    endloop
  endfacet
  facet normal -0.866025 0.500001 0
    outer loop
      vertex -2.19251 4.97617 9.5
      vertex -1.94164 5.41068 11.5
      vertex -1.94164 5.41068 9.5
    endloop
  endfacet
  facet normal -0.866025 0.500001 0
    outer loop
      vertex -1.94164 5.41068 11.5
      vertex -2.19251 4.97617 9.5
      vertex -2.19251 4.97617 11.5
    endloop
  endfacet
  facet normal 0.994522 0.104528 0
    outer loop
      vertex 2.4 4 11.5
      vertex 2.34755 4.49899 9.5
      vertex 2.34755 4.49899 11.5
    endloop
  endfacet
  facet normal 0.994522 0.104528 0
    outer loop
      vertex 2.34755 4.49899 9.5
      vertex 2.4 4 11.5
      vertex 2.4 4 9.5
    endloop
  endfacet
  facet normal -0.951056 -0.309017 0
    outer loop
      vertex -2.19251 3.02383 9.5
      vertex -2.34755 3.50101 11.5
      vertex -2.34755 3.50101 9.5
    endloop
  endfacet
  facet normal -0.951056 -0.309017 0
    outer loop
      vertex -2.34755 3.50101 11.5
      vertex -2.19251 3.02383 9.5
      vertex -2.19251 3.02383 11.5
    endloop
  endfacet
  facet normal 0.743145 -0.66913 0
    outer loop
      vertex 1.60591 2.21645 11.5
      vertex 1.94164 2.58931 9.5
      vertex 1.94164 2.58931 11.5
    endloop
  endfacet
  facet normal 0.743145 -0.66913 0
    outer loop
      vertex 1.94164 2.58931 9.5
      vertex 1.60591 2.21645 11.5
      vertex 1.60591 2.21645 9.5
    endloop
  endfacet
  facet normal 0 1 -0
    outer loop
      vertex 0.250868 6.38685 9.5
      vertex -0.250868 6.38685 11.5
      vertex 0.250868 6.38685 11.5
    endloop
  endfacet
  facet normal 0 1 0
    outer loop
      vertex -0.250868 6.38685 11.5
      vertex 0.250868 6.38685 9.5
      vertex -0.250868 6.38685 9.5
    endloop
  endfacet
  facet normal 0 0 1
    outer loop
      vertex 2.34755 4.49899 11.5
      vertex 2.34755 3.50101 11.5
      vertex 2.4 4 11.5
    endloop
  endfacet
  facet normal 0 0 1
    outer loop
      vertex 2.19251 4.97617 11.5
      vertex 2.34755 3.50101 11.5
      vertex 2.34755 4.49899 11.5
    endloop
  endfacet
  facet normal 0 0 1
    outer loop
      vertex 2.19251 4.97617 11.5
      vertex 2.19251 3.02383 11.5
      vertex 2.34755 3.50101 11.5
    endloop
  endfacet
  facet normal 0 0 1
    outer loop
      vertex 1.94164 5.41068 11.5
      vertex 2.19251 3.02383 11.5
      vertex 2.19251 4.97617 11.5
    endloop
  endfacet
  facet normal 0 0 1
    outer loop
      vertex 1.94164 5.41068 11.5
      vertex 1.94164 2.58931 11.5
      vertex 2.19251 3.02383 11.5
    endloop
  endfacet
  facet normal 0 0 1
    outer loop
      vertex 1.60591 5.78355 11.5
      vertex 1.94164 2.58931 11.5
      vertex 1.94164 5.41068 11.5
    endloop
  endfacet
  facet normal 0 0 1
    outer loop
      vertex 1.60591 5.78355 11.5
      vertex 1.60591 2.21645 11.5
      vertex 1.94164 2.58931 11.5
    endloop
  endfacet
  facet normal 0 0 1
    outer loop
      vertex 1.2 6.07846 11.5
      vertex 1.60591 2.21645 11.5
      vertex 1.60591 5.78355 11.5
    endloop
  endfacet
  facet normal 0 0 1
    outer loop
      vertex 1.2 6.07846 11.5
      vertex 1.2 1.92154 11.5
      vertex 1.60591 2.21645 11.5
    endloop
  endfacet
  facet normal 0 0 1
    outer loop
      vertex 0.74164 6.28254 11.5
      vertex 1.2 1.92154 11.5
      vertex 1.2 6.07846 11.5
    endloop
  endfacet
  facet normal 0 0 1
    outer loop
      vertex 0.74164 6.28254 11.5
      vertex 0.74164 1.71746 11.5
      vertex 1.2 1.92154 11.5
    endloop
  endfacet
  facet normal 0 0 1
    outer loop
      vertex 0.250868 6.38685 11.5
      vertex 0.74164 1.71746 11.5
      vertex 0.74164 6.28254 11.5
    endloop
  endfacet
  facet normal 0 0 1
    outer loop
      vertex 0.250868 6.38685 11.5
      vertex 0.250868 1.61315 11.5
      vertex 0.74164 1.71746 11.5
    endloop
  endfacet
  facet normal -0 0 1
    outer loop
      vertex -0.250868 6.38685 11.5
      vertex 0.250868 1.61315 11.5
      vertex 0.250868 6.38685 11.5
    endloop
  endfacet
  facet normal 0 0 1
    outer loop
      vertex -0.250868 6.38685 11.5
      vertex -0.250868 1.61315 11.5
      vertex 0.250868 1.61315 11.5
    endloop
  endfacet
  facet normal -0 0 1
    outer loop
      vertex -0.74164 6.28254 11.5
      vertex -0.250868 1.61315 11.5
      vertex -0.250868 6.38685 11.5
    endloop
  endfacet
  facet normal 0 0 1
    outer loop
      vertex -0.74164 6.28254 11.5
      vertex -0.74164 1.71746 11.5
      vertex -0.250868 1.61315 11.5
    endloop
  endfacet
  facet normal -0 0 1
    outer loop
      vertex -1.2 6.07846 11.5
      vertex -0.74164 1.71746 11.5
      vertex -0.74164 6.28254 11.5
    endloop
  endfacet
  facet normal 0 0 1
    outer loop
      vertex -1.2 6.07846 11.5
      vertex -1.2 1.92154 11.5
      vertex -0.74164 1.71746 11.5
    endloop
  endfacet
  facet normal -0 0 1
    outer loop
      vertex -1.60591 5.78355 11.5
      vertex -1.2 1.92154 11.5
      vertex -1.2 6.07846 11.5
    endloop
  endfacet
  facet normal 0 0 1
    outer loop
      vertex -1.60591 5.78355 11.5
      vertex -1.60591 2.21645 11.5
      vertex -1.2 1.92154 11.5
    endloop
  endfacet
  facet normal -0 0 1
    outer loop
      vertex -1.94164 5.41068 11.5
      vertex -1.60591 2.21645 11.5
      vertex -1.60591 5.78355 11.5
    endloop
  endfacet
  facet normal 0 0 1
    outer loop
      vertex -1.94164 5.41068 11.5
      vertex -1.94164 2.58931 11.5
      vertex -1.60591 2.21645 11.5
    endloop
  endfacet
  facet normal -0 0 1
    outer loop
      vertex -2.19251 4.97617 11.5
      vertex -1.94164 2.58931 11.5
      vertex -1.94164 5.41068 11.5
    endloop
  endfacet
  facet normal 0 0 1
    outer loop
      vertex -2.19251 4.97617 11.5
      vertex -2.19251 3.02383 11.5
      vertex -1.94164 2.58931 11.5
    endloop
  endfacet
  facet normal -0 0 1
    outer loop
      vertex -2.34755 4.49899 11.5
      vertex -2.19251 3.02383 11.5
      vertex -2.19251 4.97617 11.5
    endloop
  endfacet
  facet normal 0 0 1
    outer loop
      vertex -2.34755 4.49899 11.5
      vertex -2.34755 3.50101 11.5
      vertex -2.19251 3.02383 11.5
    endloop
  endfacet
  facet normal 0 -0 1
    outer loop
      vertex -2.34755 3.50101 11.5
      vertex -2.34755 4.49899 11.5
      vertex -2.4 4 11.5
    endloop
  endfacet
  facet normal -0.994522 0.104528 0
    outer loop
      vertex -2.4 4 9.5
      vertex -2.34755 4.49899 11.5
      vertex -2.34755 4.49899 9.5
    endloop
  endfacet
  facet normal -0.994522 0.104528 0
    outer loop
      vertex -2.34755 4.49899 11.5
      vertex -2.4 4 9.5
      vertex -2.4 4 11.5
    endloop
  endfacet
  facet normal 0.951056 -0.309017 0
    outer loop
      vertex 2.19251 3.02383 11.5
      vertex 2.34755 3.50101 9.5
      vertex 2.34755 3.50101 11.5
    endloop
  endfacet
  facet normal 0.951056 -0.309017 0
    outer loop
      vertex 2.34755 3.50101 9.5
      vertex 2.19251 3.02383 11.5
      vertex 2.19251 3.02383 9.5
    endloop
  endfacet
  facet normal 0 -1 0
    outer loop
      vertex -0.250868 1.61315 9.5
      vertex 0.250868 1.61315 11.5
      vertex -0.250868 1.61315 11.5
    endloop
  endfacet
  facet normal 0 -1 -0
    outer loop
      vertex 0.250868 1.61315 11.5
      vertex -0.250868 1.61315 9.5
      vertex 0.250868 1.61315 9.5
    endloop
  endfacet
  facet normal 0.587785 -0.809017 0
    outer loop
      vertex 1.2 1.92154 9.5
      vertex 1.60591 2.21645 11.5
      vertex 1.2 1.92154 11.5
    endloop
  endfacet
  facet normal 0.587785 -0.809017 0
    outer loop
      vertex 1.60591 2.21645 11.5
      vertex 1.2 1.92154 9.5
      vertex 1.60591 2.21645 9.5
    endloop
  endfacet
  facet normal -0.743145 -0.66913 0
    outer loop
      vertex -1.60591 2.21645 9.5
      vertex -1.94164 2.58931 11.5
      vertex -1.94164 2.58931 9.5
    endloop
  endfacet
  facet normal -0.743145 -0.66913 0
    outer loop
      vertex -1.94164 2.58931 11.5
      vertex -1.60591 2.21645 9.5
      vertex -1.60591 2.21645 11.5
    endloop
  endfacet
  facet normal -0.866025 -0.500001 0
    outer loop
      vertex -1.94164 2.58931 9.5
      vertex -2.19251 3.02383 11.5
      vertex -2.19251 3.02383 9.5
    endloop
  endfacet
  facet normal -0.866025 -0.500001 0
    outer loop
      vertex -2.19251 3.02383 11.5
      vertex -1.94164 2.58931 9.5
      vertex -1.94164 2.58931 11.5
    endloop
  endfacet
  facet normal -0.587785 -0.809017 0
    outer loop
      vertex -1.60591 2.21645 9.5
      vertex -1.2 1.92154 11.5
      vertex -1.60591 2.21645 11.5
    endloop
  endfacet
  facet normal -0.587785 -0.809017 -0
    outer loop
      vertex -1.2 1.92154 11.5
      vertex -1.60591 2.21645 9.5
      vertex -1.2 1.92154 9.5
    endloop
  endfacet
  facet normal 0.207911 -0.978148 0
    outer loop
      vertex 0.250868 1.61315 9.5
      vertex 0.74164 1.71746 11.5
      vertex 0.250868 1.61315 11.5
    endloop
  endfacet
  facet normal 0.207911 -0.978148 0
    outer loop
      vertex 0.74164 1.71746 11.5
      vertex 0.250868 1.61315 9.5
      vertex 0.74164 1.71746 9.5
    endloop
  endfacet
  facet normal -0.406737 -0.913545 0
    outer loop
      vertex -1.2 1.92154 9.5
      vertex -0.74164 1.71746 11.5
      vertex -1.2 1.92154 11.5
    endloop
  endfacet
  facet normal -0.406737 -0.913545 -0
    outer loop
      vertex -0.74164 1.71746 11.5
      vertex -1.2 1.92154 9.5
      vertex -0.74164 1.71746 9.5
    endloop
  endfacet
  facet normal 0.866025 -0.500001 0
    outer loop
      vertex 1.94164 2.58931 11.5
      vertex 2.19251 3.02383 9.5
      vertex 2.19251 3.02383 11.5
    endloop
  endfacet
  facet normal 0.866025 -0.500001 0
    outer loop
      vertex 2.19251 3.02383 9.5
      vertex 1.94164 2.58931 11.5
      vertex 1.94164 2.58931 9.5
    endloop
  endfacet
  facet normal -0.207911 -0.978148 0
    outer loop
      vertex -0.74164 1.71746 9.5
      vertex -0.250868 1.61315 11.5
      vertex -0.74164 1.71746 11.5
    endloop
  endfacet
  facet normal -0.207911 -0.978148 -0
    outer loop
      vertex -0.250868 1.61315 11.5
      vertex -0.74164 1.71746 9.5
      vertex -0.250868 1.61315 9.5
    endloop
  endfacet
  facet normal -1 0 0
    outer loop
      vertex -3.85 -7.85 0
      vertex -3.85 7.85 9.5
      vertex -3.85 7.85 0
    endloop
  endfacet
  facet normal -1 -0 0
    outer loop
      vertex -3.85 7.85 9.5
      vertex -3.85 -7.85 0
      vertex -3.85 -7.85 9.5
    endloop
  endfacet
  facet normal -0 0 1
    outer loop
      vertex 2.34755 -3.50101 9.5
      vertex 3.85 -7.85 9.5
      vertex 2.34755 3.50101 9.5
    endloop
  endfacet
  facet normal 0 0 1
    outer loop
      vertex 3.85 -7.85 9.5
      vertex 2.34755 -3.50101 9.5
      vertex 2.4 -4 9.5
    endloop
  endfacet
  facet normal -0 0 1
    outer loop
      vertex 2.19251 3.02383 9.5
      vertex 2.34755 -3.50101 9.5
      vertex 2.34755 3.50101 9.5
    endloop
  endfacet
  facet normal 0 0 1
    outer loop
      vertex 2.19251 3.02383 9.5
      vertex 2.19251 -3.02383 9.5
      vertex 2.34755 -3.50101 9.5
    endloop
  endfacet
  facet normal -0 0 1
    outer loop
      vertex 1.94164 2.58931 9.5
      vertex 2.19251 -3.02383 9.5
      vertex 2.19251 3.02383 9.5
    endloop
  endfacet
  facet normal 0 0 1
    outer loop
      vertex 1.94164 2.58931 9.5
      vertex 1.94164 -2.58932 9.5
      vertex 2.19251 -3.02383 9.5
    endloop
  endfacet
  facet normal -0 0 1
    outer loop
      vertex 1.60591 2.21645 9.5
      vertex 1.94164 -2.58932 9.5
      vertex 1.94164 2.58931 9.5
    endloop
  endfacet
  facet normal 0 0 1
    outer loop
      vertex 1.60591 2.21645 9.5
      vertex 1.60591 -2.21645 9.5
      vertex 1.94164 -2.58932 9.5
    endloop
  endfacet
  facet normal -0 0 1
    outer loop
      vertex 1.2 1.92154 9.5
      vertex 1.60591 -2.21645 9.5
      vertex 1.60591 2.21645 9.5
    endloop
  endfacet
  facet normal 0 0 1
    outer loop
      vertex 1.2 1.92154 9.5
      vertex 1.2 -1.92154 9.5
      vertex 1.60591 -2.21645 9.5
    endloop
  endfacet
  facet normal -0 0 1
    outer loop
      vertex 0.74164 1.71746 9.5
      vertex 1.2 -1.92154 9.5
      vertex 1.2 1.92154 9.5
    endloop
  endfacet
  facet normal 0 0 1
    outer loop
      vertex 0.74164 1.71746 9.5
      vertex 0.74164 -1.71746 9.5
      vertex 1.2 -1.92154 9.5
    endloop
  endfacet
  facet normal -0 0 1
    outer loop
      vertex 0.250868 1.61315 9.5
      vertex 0.74164 -1.71746 9.5
      vertex 0.74164 1.71746 9.5
    endloop
  endfacet
  facet normal 0 0 1
    outer loop
      vertex 0.250868 1.61315 9.5
      vertex 0.250868 -1.61315 9.5
      vertex 0.74164 -1.71746 9.5
    endloop
  endfacet
  facet normal -0 0 1
    outer loop
      vertex -0.250868 1.61315 9.5
      vertex 0.250868 -1.61315 9.5
      vertex 0.250868 1.61315 9.5
    endloop
  endfacet
  facet normal 0 0 1
    outer loop
      vertex -0.250868 1.61315 9.5
      vertex -0.250868 -1.61315 9.5
      vertex 0.250868 -1.61315 9.5
    endloop
  endfacet
  facet normal 0 0 1
    outer loop
      vertex -0.74164 1.71746 9.5
      vertex -0.250868 -1.61315 9.5
      vertex -0.250868 1.61315 9.5
    endloop
  endfacet
  facet normal 0 0 1
    outer loop
      vertex -0.74164 1.71746 9.5
      vertex -0.74164 -1.71746 9.5
      vertex -0.250868 -1.61315 9.5
    endloop
  endfacet
  facet normal 0 0 1
    outer loop
      vertex -1.2 1.92154 9.5
      vertex -0.74164 -1.71746 9.5
      vertex -0.74164 1.71746 9.5
    endloop
  endfacet
  facet normal 0 0 1
    outer loop
      vertex -1.2 1.92154 9.5
      vertex -1.2 -1.92154 9.5
      vertex -0.74164 -1.71746 9.5
    endloop
  endfacet
  facet normal 0 0 1
    outer loop
      vertex -1.60591 2.21645 9.5
      vertex -1.2 -1.92154 9.5
      vertex -1.2 1.92154 9.5
    endloop
  endfacet
  facet normal 0 0 1
    outer loop
      vertex -1.60591 2.21645 9.5
      vertex -1.60591 -2.21645 9.5
      vertex -1.2 -1.92154 9.5
    endloop
  endfacet
  facet normal 0 0 1
    outer loop
      vertex -1.94164 2.58931 9.5
      vertex -1.60591 -2.21645 9.5
      vertex -1.60591 2.21645 9.5
    endloop
  endfacet
  facet normal 0 0 1
    outer loop
      vertex -1.94164 2.58931 9.5
      vertex -1.94164 -2.58932 9.5
      vertex -1.60591 -2.21645 9.5
    endloop
  endfacet
  facet normal 0 0 1
    outer loop
      vertex -2.19251 3.02383 9.5
      vertex -1.94164 -2.58932 9.5
      vertex -1.94164 2.58931 9.5
    endloop
  endfacet
  facet normal 0 0 1
    outer loop
      vertex -2.19251 3.02383 9.5
      vertex -2.19251 -3.02383 9.5
      vertex -1.94164 -2.58932 9.5
    endloop
  endfacet
  facet normal 0 0 1
    outer loop
      vertex -2.34755 3.50101 9.5
      vertex -2.19251 -3.02383 9.5
      vertex -2.19251 3.02383 9.5
    endloop
  endfacet
  facet normal 0 0 1
    outer loop
      vertex -2.34755 3.50101 9.5
      vertex -2.34755 -3.50101 9.5
      vertex -2.19251 -3.02383 9.5
    endloop
  endfacet
  facet normal 0 0 1
    outer loop
      vertex -3.85 7.85 9.5
      vertex -2.34755 3.50101 9.5
      vertex -2.4 4 9.5
    endloop
  endfacet
  facet normal 0 0 1
    outer loop
      vertex -2.34755 3.50101 9.5
      vertex -3.85 7.85 9.5
      vertex -2.34755 -3.50101 9.5
    endloop
  endfacet
  facet normal 0 0 1
    outer loop
      vertex 2.34755 3.50101 9.5
      vertex 3.85 7.85 9.5
      vertex 2.4 4 9.5
    endloop
  endfacet
  facet normal 0 0 1
    outer loop
      vertex 3.85 7.85 9.5
      vertex 2.34755 4.49899 9.5
      vertex 2.4 4 9.5
    endloop
  endfacet
  facet normal 0 0 1
    outer loop
      vertex 3.85 7.85 9.5
      vertex 2.19251 4.97617 9.5
      vertex 2.34755 4.49899 9.5
    endloop
  endfacet
  facet normal 0 0 1
    outer loop
      vertex 3.85 7.85 9.5
      vertex 1.94164 5.41068 9.5
      vertex 2.19251 4.97617 9.5
    endloop
  endfacet
  facet normal 0 0 1
    outer loop
      vertex 3.85 7.85 9.5
      vertex 1.60591 5.78355 9.5
      vertex 1.94164 5.41068 9.5
    endloop
  endfacet
  facet normal 0 0 1
    outer loop
      vertex 3.85 7.85 9.5
      vertex 1.2 6.07846 9.5
      vertex 1.60591 5.78355 9.5
    endloop
  endfacet
  facet normal 0 0 1
    outer loop
      vertex 3.85 7.85 9.5
      vertex 0.74164 6.28254 9.5
      vertex 1.2 6.07846 9.5
    endloop
  endfacet
  facet normal 0 0 1
    outer loop
      vertex 3.85 7.85 9.5
      vertex 0.250868 6.38685 9.5
      vertex 0.74164 6.28254 9.5
    endloop
  endfacet
  facet normal 0 0 1
    outer loop
      vertex 3.85 7.85 9.5
      vertex -0.250868 6.38685 9.5
      vertex 0.250868 6.38685 9.5
    endloop
  endfacet
  facet normal -0 0 1
    outer loop
      vertex -3.85 7.85 9.5
      vertex -0.250868 6.38685 9.5
      vertex 3.85 7.85 9.5
    endloop
  endfacet
  facet normal 0 0 1
    outer loop
      vertex -3.85 -7.85 9.5
      vertex -2.34755 -3.50101 9.5
      vertex -3.85 7.85 9.5
    endloop
  endfacet
  facet normal 0 0 1
    outer loop
      vertex -2.34755 4.49899 9.5
      vertex -3.85 7.85 9.5
      vertex -2.4 4 9.5
    endloop
  endfacet
  facet normal 0 0 1
    outer loop
      vertex -2.19251 4.97617 9.5
      vertex -3.85 7.85 9.5
      vertex -2.34755 4.49899 9.5
    endloop
  endfacet
  facet normal 0 0 1
    outer loop
      vertex -1.94164 5.41068 9.5
      vertex -3.85 7.85 9.5
      vertex -2.19251 4.97617 9.5
    endloop
  endfacet
  facet normal 0 0 1
    outer loop
      vertex -1.60591 5.78355 9.5
      vertex -3.85 7.85 9.5
      vertex -1.94164 5.41068 9.5
    endloop
  endfacet
  facet normal 0 0 1
    outer loop
      vertex -1.2 6.07846 9.5
      vertex -3.85 7.85 9.5
      vertex -1.60591 5.78355 9.5
    endloop
  endfacet
  facet normal 0 0 1
    outer loop
      vertex -0.74164 6.28254 9.5
      vertex -3.85 7.85 9.5
      vertex -1.2 6.07846 9.5
    endloop
  endfacet
  facet normal 0 0 1
    outer loop
      vertex -0.250868 6.38685 9.5
      vertex -3.85 7.85 9.5
      vertex -0.74164 6.28254 9.5
    endloop
  endfacet
  facet normal 0 0 1
    outer loop
      vertex 3.85 7.85 9.5
      vertex 2.34755 3.50101 9.5
      vertex 3.85 -7.85 9.5
    endloop
  endfacet
  facet normal -0 0 1
    outer loop
      vertex 2.34755 -4.49899 9.5
      vertex 3.85 -7.85 9.5
      vertex 2.4 -4 9.5
    endloop
  endfacet
  facet normal -0 0 1
    outer loop
      vertex 2.19251 -4.97617 9.5
      vertex 3.85 -7.85 9.5
      vertex 2.34755 -4.49899 9.5
    endloop
  endfacet
  facet normal -0 0 1
    outer loop
      vertex 1.94164 -5.41068 9.5
      vertex 3.85 -7.85 9.5
      vertex 2.19251 -4.97617 9.5
    endloop
  endfacet
  facet normal -0 0 1
    outer loop
      vertex 1.60591 -5.78355 9.5
      vertex 3.85 -7.85 9.5
      vertex 1.94164 -5.41068 9.5
    endloop
  endfacet
  facet normal -0 0 1
    outer loop
      vertex 1.2 -6.07846 9.5
      vertex 3.85 -7.85 9.5
      vertex 1.60591 -5.78355 9.5
    endloop
  endfacet
  facet normal -0 0 1
    outer loop
      vertex 0.74164 -6.28254 9.5
      vertex 3.85 -7.85 9.5
      vertex 1.2 -6.07846 9.5
    endloop
  endfacet
  facet normal -0 0 1
    outer loop
      vertex 0.250868 -6.38685 9.5
      vertex 3.85 -7.85 9.5
      vertex 0.74164 -6.28254 9.5
    endloop
  endfacet
  facet normal -0 0 1
    outer loop
      vertex -0.250868 -6.38685 9.5
      vertex 3.85 -7.85 9.5
      vertex 0.250868 -6.38685 9.5
    endloop
  endfacet
  facet normal 0 0 1
    outer loop
      vertex -3.85 -7.85 9.5
      vertex -0.250868 -6.38685 9.5
      vertex -0.74164 -6.28254 9.5
    endloop
  endfacet
  facet normal 0 0 1
    outer loop
      vertex -2.34755 -3.50101 9.5
      vertex -3.85 -7.85 9.5
      vertex -2.4 -4 9.5
    endloop
  endfacet
  facet normal 0 0 1
    outer loop
      vertex -0.250868 -6.38685 9.5
      vertex -3.85 -7.85 9.5
      vertex 3.85 -7.85 9.5
    endloop
  endfacet
  facet normal 0 0 1
    outer loop
      vertex -1.2 -6.07846 9.5
      vertex -3.85 -7.85 9.5
      vertex -0.74164 -6.28254 9.5
    endloop
  endfacet
  facet normal 0 0 1
    outer loop
      vertex -1.60591 -5.78355 9.5
      vertex -3.85 -7.85 9.5
      vertex -1.2 -6.07846 9.5
    endloop
  endfacet
  facet normal 0 0 1
    outer loop
      vertex -1.94164 -5.41068 9.5
      vertex -3.85 -7.85 9.5
      vertex -1.60591 -5.78355 9.5
    endloop
  endfacet
  facet normal 0 0 1
    outer loop
      vertex -2.19251 -4.97617 9.5
      vertex -3.85 -7.85 9.5
      vertex -1.94164 -5.41068 9.5
    endloop
  endfacet
  facet normal 0 0 1
    outer loop
      vertex -2.34755 -4.49899 9.5
      vertex -3.85 -7.85 9.5
      vertex -2.19251 -4.97617 9.5
    endloop
  endfacet
  facet normal 0 0 1
    outer loop
      vertex -2.4 -4 9.5
      vertex -3.85 -7.85 9.5
      vertex -2.34755 -4.49899 9.5
    endloop
  endfacet
  facet normal 1 -0 0
    outer loop
      vertex 3.85 -7.85 9.5
      vertex 3.85 7.85 0
      vertex 3.85 7.85 9.5
    endloop
  endfacet
  facet normal 1 0 0
    outer loop
      vertex 3.85 7.85 0
      vertex 3.85 -7.85 9.5
      vertex 3.85 -7.85 0
    endloop
  endfacet
  facet normal 0 1 -0
    outer loop
      vertex 3.85 7.85 0
      vertex -3.85 7.85 9.5
      vertex 3.85 7.85 9.5
    endloop
  endfacet
  facet normal 0 1 0
    outer loop
      vertex -3.85 7.85 9.5
      vertex 3.85 7.85 0
      vertex -3.85 7.85 0
    endloop
  endfacet
  facet normal 0 -1 0
    outer loop
      vertex -3.85 -7.85 0
      vertex 3.85 -7.85 9.5
      vertex -3.85 -7.85 9.5
    endloop
  endfacet
  facet normal 0 -1 -0
    outer loop
      vertex 3.85 -7.85 9.5
      vertex -3.85 -7.85 0
      vertex 3.85 -7.85 0
    endloop
  endfacet
  facet normal 1 -0 0
    outer loop
      vertex -2.4 -6.4 8.45
      vertex -2.4 6.4 0
      vertex -2.4 6.4 8.45
    endloop
  endfacet
  facet normal 1 0 0
    outer loop
      vertex -2.4 6.4 0
      vertex -2.4 -6.4 8.45
      vertex -2.4 -6.4 0
    endloop
  endfacet
  facet normal 0 0 -1
    outer loop
      vertex 2.4 -6.4 8.45
      vertex 1.5 -5.72205e-07 8.45
      vertex 2.4 6.4 8.45
    endloop
  endfacet
  facet normal 0 0 -1
    outer loop
      vertex 2.4 -6.4 8.45
      vertex 1.46722 -0.311868 8.45
      vertex 1.5 -5.72205e-07 8.45
    endloop
  endfacet
  facet normal 0 0 -1
    outer loop
      vertex 2.4 -6.4 8.45
      vertex 1.37032 -0.610105 8.45
      vertex 1.46722 -0.311868 8.45
    endloop
  endfacet
  facet normal 0 0 -1
    outer loop
      vertex 2.4 -6.4 8.45
      vertex 1.21353 -0.881678 8.45
      vertex 1.37032 -0.610105 8.45
    endloop
  endfacet
  facet normal 0 0 -1
    outer loop
      vertex 2.4 -6.4 8.45
      vertex 1.0037 -1.11472 8.45
      vertex 1.21353 -0.881678 8.45
    endloop
  endfacet
  facet normal 0 0 -1
    outer loop
      vertex 2.4 -6.4 8.45
      vertex 0.749999 -1.29904 8.45
      vertex 1.0037 -1.11472 8.45
    endloop
  endfacet
  facet normal 0 0 -1
    outer loop
      vertex 2.4 -6.4 8.45
      vertex 0.463525 -1.42658 8.45
      vertex 0.749999 -1.29904 8.45
    endloop
  endfacet
  facet normal 0 0 -1
    outer loop
      vertex 2.4 -6.4 8.45
      vertex 0.156792 -1.49178 8.45
      vertex 0.463525 -1.42658 8.45
    endloop
  endfacet
  facet normal 0 0 -1
    outer loop
      vertex 2.4 -6.4 8.45
      vertex -0.156793 -1.49178 8.45
      vertex 0.156792 -1.49178 8.45
    endloop
  endfacet
  facet normal 0 0 -1
    outer loop
      vertex -2.4 -6.4 8.45
      vertex -0.156793 -1.49178 8.45
      vertex 2.4 -6.4 8.45
    endloop
  endfacet
  facet normal -0 0 -1
    outer loop
      vertex -0.156793 -1.49178 8.45
      vertex -2.4 -6.4 8.45
      vertex -0.463526 -1.42658 8.45
    endloop
  endfacet
  facet normal -0 0 -1
    outer loop
      vertex -0.463526 -1.42658 8.45
      vertex -2.4 -6.4 8.45
      vertex -0.750001 -1.29904 8.45
    endloop
  endfacet
  facet normal -0 0 -1
    outer loop
      vertex -0.750001 -1.29904 8.45
      vertex -2.4 -6.4 8.45
      vertex -1.0037 -1.11472 8.45
    endloop
  endfacet
  facet normal -0 0 -1
    outer loop
      vertex -1.46722 -0.311868 8.45
      vertex -2.4 -6.4 8.45
      vertex -1.5 -5.72205e-07 8.45
    endloop
  endfacet
  facet normal -0 0 -1
    outer loop
      vertex -1.37032 -0.610105 8.45
      vertex -2.4 -6.4 8.45
      vertex -1.46722 -0.311868 8.45
    endloop
  endfacet
  facet normal -0 0 -1
    outer loop
      vertex -1.21353 -0.881678 8.45
      vertex -2.4 -6.4 8.45
      vertex -1.37032 -0.610105 8.45
    endloop
  endfacet
  facet normal -0 0 -1
    outer loop
      vertex -1.0037 -1.11472 8.45
      vertex -2.4 -6.4 8.45
      vertex -1.21353 -0.881678 8.45
    endloop
  endfacet
  facet normal 0 0 -1
    outer loop
      vertex 1.46722 0.311867 8.45
      vertex 2.4 6.4 8.45
      vertex 1.5 -5.72205e-07 8.45
    endloop
  endfacet
  facet normal 0 0 -1
    outer loop
      vertex 1.37032 0.610105 8.45
      vertex 2.4 6.4 8.45
      vertex 1.46722 0.311867 8.45
    endloop
  endfacet
  facet normal 0 0 -1
    outer loop
      vertex 1.21353 0.881677 8.45
      vertex 2.4 6.4 8.45
      vertex 1.37032 0.610105 8.45
    endloop
  endfacet
  facet normal 0 0 -1
    outer loop
      vertex 1.0037 1.11472 8.45
      vertex 2.4 6.4 8.45
      vertex 1.21353 0.881677 8.45
    endloop
  endfacet
  facet normal 0 0 -1
    outer loop
      vertex 0.749999 1.29904 8.45
      vertex 2.4 6.4 8.45
      vertex 1.0037 1.11472 8.45
    endloop
  endfacet
  facet normal 0 0 -1
    outer loop
      vertex 0.463525 1.42658 8.45
      vertex 2.4 6.4 8.45
      vertex 0.749999 1.29904 8.45
    endloop
  endfacet
  facet normal 0 0 -1
    outer loop
      vertex 0.156792 1.49178 8.45
      vertex 2.4 6.4 8.45
      vertex 0.463525 1.42658 8.45
    endloop
  endfacet
  facet normal 0 0 -1
    outer loop
      vertex -0.156793 1.49178 8.45
      vertex 2.4 6.4 8.45
      vertex 0.156792 1.49178 8.45
    endloop
  endfacet
  facet normal 0 0 -1
    outer loop
      vertex -2.4 6.4 8.45
      vertex -0.156793 1.49178 8.45
      vertex -0.463526 1.42658 8.45
    endloop
  endfacet
  facet normal 0 0 -1
    outer loop
      vertex -2.4 6.4 8.45
      vertex -0.463526 1.42658 8.45
      vertex -0.750001 1.29904 8.45
    endloop
  endfacet
  facet normal 0 0 -1
    outer loop
      vertex -2.4 6.4 8.45
      vertex -0.750001 1.29904 8.45
      vertex -1.0037 1.11472 8.45
    endloop
  endfacet
  facet normal 0 0 -1
    outer loop
      vertex -2.4 6.4 8.45
      vertex -1.0037 1.11472 8.45
      vertex -1.21353 0.881677 8.45
    endloop
  endfacet
  facet normal 0 0 -1
    outer loop
      vertex -2.4 6.4 8.45
      vertex -1.5 -5.72205e-07 8.45
      vertex -2.4 -6.4 8.45
    endloop
  endfacet
  facet normal 0 0 -1
    outer loop
      vertex -0.156793 1.49178 8.45
      vertex -2.4 6.4 8.45
      vertex 2.4 6.4 8.45
    endloop
  endfacet
  facet normal 0 0 -1
    outer loop
      vertex -1.37032 0.610105 8.45
      vertex -2.4 6.4 8.45
      vertex -1.21353 0.881677 8.45
    endloop
  endfacet
  facet normal 0 0 -1
    outer loop
      vertex -1.46722 0.311867 8.45
      vertex -2.4 6.4 8.45
      vertex -1.37032 0.610105 8.45
    endloop
  endfacet
  facet normal 0 0 -1
    outer loop
      vertex -1.5 -5.72205e-07 8.45
      vertex -2.4 6.4 8.45
      vertex -1.46722 0.311867 8.45
    endloop
  endfacet
  facet normal -1 0 0
    outer loop
      vertex 2.4 -6.4 0
      vertex 2.4 6.4 8.45
      vertex 2.4 6.4 0
    endloop
  endfacet
  facet normal -1 -0 0
    outer loop
      vertex 2.4 6.4 8.45
      vertex 2.4 -6.4 0
      vertex 2.4 -6.4 8.45
    endloop
  endfacet
  facet normal 0 1 -0
    outer loop
      vertex 2.4 -6.4 0
      vertex -2.4 -6.4 8.45
      vertex 2.4 -6.4 8.45
    endloop
  endfacet
  facet normal 0 1 0
    outer loop
      vertex -2.4 -6.4 8.45
      vertex 2.4 -6.4 0
      vertex -2.4 -6.4 0
    endloop
  endfacet
  facet normal 0 -1 0
    outer loop
      vertex -2.4 6.4 0
      vertex 2.4 6.4 8.45
      vertex -2.4 6.4 8.45
    endloop
  endfacet
  facet normal 0 -1 -0
    outer loop
      vertex 2.4 6.4 8.45
      vertex -2.4 6.4 0
      vertex 2.4 6.4 0
    endloop
  endfacet
  facet normal 0.994522 0.104529 0
    outer loop
      vertex 1.5 -5.72205e-07 8.45
      vertex 1.46722 0.311867 0
      vertex 1.46722 0.311867 8.45
    endloop
  endfacet
  facet normal 0.994522 0.104529 0
    outer loop
      vertex 1.46722 0.311867 0
      vertex 1.5 -5.72205e-07 8.45
      vertex 1.5 -5.72205e-07 0
    endloop
  endfacet
  facet normal -0.994522 0.104529 0
    outer loop
      vertex -1.5 -5.72205e-07 0
      vertex -1.46722 0.311867 8.45
      vertex -1.46722 0.311867 0
    endloop
  endfacet
  facet normal -0.994522 0.104529 0
    outer loop
      vertex -1.46722 0.311867 8.45
      vertex -1.5 -5.72205e-07 0
      vertex -1.5 -5.72205e-07 8.45
    endloop
  endfacet
  facet normal 0 1 -0
    outer loop
      vertex 0.156792 1.49178 0
      vertex -0.156793 1.49178 8.45
      vertex 0.156792 1.49178 8.45
    endloop
  endfacet
  facet normal 0 1 0
    outer loop
      vertex -0.156793 1.49178 8.45
      vertex 0.156792 1.49178 0
      vertex -0.156793 1.49178 0
    endloop
  endfacet
  facet normal 0 -1 0
    outer loop
      vertex -0.156793 -1.49178 0
      vertex 0.156792 -1.49178 8.45
      vertex -0.156793 -1.49178 8.45
    endloop
  endfacet
  facet normal 0 -1 -0
    outer loop
      vertex 0.156792 -1.49178 8.45
      vertex -0.156793 -1.49178 0
      vertex 0.156792 -1.49178 0
    endloop
  endfacet
  facet normal 0.743146 0.669129 0
    outer loop
      vertex 1.21353 0.881677 8.45
      vertex 1.0037 1.11472 0
      vertex 1.0037 1.11472 8.45
    endloop
  endfacet
  facet normal 0.743146 0.669129 0
    outer loop
      vertex 1.0037 1.11472 0
      vertex 1.21353 0.881677 8.45
      vertex 1.21353 0.881677 0
    endloop
  endfacet
  facet normal 0.951057 0.309016 0
    outer loop
      vertex 1.46722 0.311867 8.45
      vertex 1.37032 0.610105 0
      vertex 1.37032 0.610105 8.45
    endloop
  endfacet
  facet normal 0.951057 0.309016 0
    outer loop
      vertex 1.37032 0.610105 0
      vertex 1.46722 0.311867 8.45
      vertex 1.46722 0.311867 0
    endloop
  endfacet
  facet normal -0.743144 0.669131 0
    outer loop
      vertex -1.21353 0.881677 0
      vertex -1.0037 1.11472 8.45
      vertex -1.0037 1.11472 0
    endloop
  endfacet
  facet normal -0.743144 0.669131 0
    outer loop
      vertex -1.0037 1.11472 8.45
      vertex -1.21353 0.881677 0
      vertex -1.21353 0.881677 8.45
    endloop
  endfacet
  facet normal -0.866025 0.500001 0
    outer loop
      vertex -1.37032 0.610105 0
      vertex -1.21353 0.881677 8.45
      vertex -1.21353 0.881677 0
    endloop
  endfacet
  facet normal -0.866025 0.500001 0
    outer loop
      vertex -1.21353 0.881677 8.45
      vertex -1.37032 0.610105 0
      vertex -1.37032 0.610105 8.45
    endloop
  endfacet
  facet normal -0.406739 0.913545 0
    outer loop
      vertex -0.463526 1.42658 0
      vertex -0.750001 1.29904 8.45
      vertex -0.463526 1.42658 8.45
    endloop
  endfacet
  facet normal -0.406739 0.913545 0
    outer loop
      vertex -0.750001 1.29904 8.45
      vertex -0.463526 1.42658 0
      vertex -0.750001 1.29904 0
    endloop
  endfacet
  facet normal 0.866025 0.500001 0
    outer loop
      vertex 1.37032 0.610105 8.45
      vertex 1.21353 0.881677 0
      vertex 1.21353 0.881677 8.45
    endloop
  endfacet
  facet normal 0.866025 0.500001 0
    outer loop
      vertex 1.21353 0.881677 0
      vertex 1.37032 0.610105 8.45
      vertex 1.37032 0.610105 0
    endloop
  endfacet
  facet normal 0.406739 0.913545 -0
    outer loop
      vertex 0.749999 1.29904 0
      vertex 0.463525 1.42658 8.45
      vertex 0.749999 1.29904 8.45
    endloop
  endfacet
  facet normal 0.406739 0.913545 0
    outer loop
      vertex 0.463525 1.42658 8.45
      vertex 0.749999 1.29904 0
      vertex 0.463525 1.42658 0
    endloop
  endfacet
  facet normal 0.207911 0.978148 -0
    outer loop
      vertex 0.463525 1.42658 0
      vertex 0.156792 1.49178 8.45
      vertex 0.463525 1.42658 8.45
    endloop
  endfacet
  facet normal 0.207911 0.978148 0
    outer loop
      vertex 0.156792 1.49178 8.45
      vertex 0.463525 1.42658 0
      vertex 0.156792 1.49178 0
    endloop
  endfacet
  facet normal 0.587784 0.809018 -0
    outer loop
      vertex 1.0037 1.11472 0
      vertex 0.749999 1.29904 8.45
      vertex 1.0037 1.11472 8.45
    endloop
  endfacet
  facet normal 0.587784 0.809018 0
    outer loop
      vertex 0.749999 1.29904 8.45
      vertex 1.0037 1.11472 0
      vertex 0.749999 1.29904 0
    endloop
  endfacet
  facet normal -0.951057 0.309016 0
    outer loop
      vertex -1.46722 0.311867 0
      vertex -1.37032 0.610105 8.45
      vertex -1.37032 0.610105 0
    endloop
  endfacet
  facet normal -0.951057 0.309016 0
    outer loop
      vertex -1.37032 0.610105 8.45
      vertex -1.46722 0.311867 0
      vertex -1.46722 0.311867 8.45
    endloop
  endfacet
  facet normal -0.587785 0.809017 0
    outer loop
      vertex -0.750001 1.29904 0
      vertex -1.0037 1.11472 8.45
      vertex -0.750001 1.29904 8.45
    endloop
  endfacet
  facet normal -0.587785 0.809017 0
    outer loop
      vertex -1.0037 1.11472 8.45
      vertex -0.750001 1.29904 0
      vertex -1.0037 1.11472 0
    endloop
  endfacet
  facet normal -0.207911 0.978148 0
    outer loop
      vertex -0.156793 1.49178 0
      vertex -0.463526 1.42658 8.45
      vertex -0.156793 1.49178 8.45
    endloop
  endfacet
  facet normal -0.207911 0.978148 0
    outer loop
      vertex -0.463526 1.42658 8.45
      vertex -0.156793 1.49178 0
      vertex -0.463526 1.42658 0
    endloop
  endfacet
  facet normal 0.994522 -0.104529 0
    outer loop
      vertex 1.46722 -0.311868 8.45
      vertex 1.5 -5.72205e-07 0
      vertex 1.5 -5.72205e-07 8.45
    endloop
  endfacet
  facet normal 0.994522 -0.104529 0
    outer loop
      vertex 1.5 -5.72205e-07 0
      vertex 1.46722 -0.311868 8.45
      vertex 1.46722 -0.311868 0
    endloop
  endfacet
  facet normal 0 0 -1
    outer loop
      vertex 1.46722 -0.311868 0
      vertex 1.46722 0.311867 0
      vertex 1.5 -5.72205e-07 0
    endloop
  endfacet
  facet normal 0 0 -1
    outer loop
      vertex 1.37032 -0.610105 0
      vertex 1.46722 0.311867 0
      vertex 1.46722 -0.311868 0
    endloop
  endfacet
  facet normal 0 0 -1
    outer loop
      vertex 1.37032 -0.610105 0
      vertex 1.37032 0.610105 0
      vertex 1.46722 0.311867 0
    endloop
  endfacet
  facet normal 0 0 -1
    outer loop
      vertex 1.21353 -0.881678 0
      vertex 1.37032 0.610105 0
      vertex 1.37032 -0.610105 0
    endloop
  endfacet
  facet normal 0 0 -1
    outer loop
      vertex 1.21353 -0.881678 0
      vertex 1.21353 0.881677 0
      vertex 1.37032 0.610105 0
    endloop
  endfacet
  facet normal 0 0 -1
    outer loop
      vertex 1.0037 -1.11472 0
      vertex 1.21353 0.881677 0
      vertex 1.21353 -0.881678 0
    endloop
  endfacet
  facet normal 0 0 -1
    outer loop
      vertex 1.0037 -1.11472 0
      vertex 1.0037 1.11472 0
      vertex 1.21353 0.881677 0
    endloop
  endfacet
  facet normal 0 0 -1
    outer loop
      vertex 0.749999 -1.29904 0
      vertex 1.0037 1.11472 0
      vertex 1.0037 -1.11472 0
    endloop
  endfacet
  facet normal 0 0 -1
    outer loop
      vertex 0.749999 -1.29904 0
      vertex 0.749999 1.29904 0
      vertex 1.0037 1.11472 0
    endloop
  endfacet
  facet normal 0 0 -1
    outer loop
      vertex 0.463525 -1.42658 0
      vertex 0.749999 1.29904 0
      vertex 0.749999 -1.29904 0
    endloop
  endfacet
  facet normal 0 0 -1
    outer loop
      vertex 0.463525 -1.42658 0
      vertex 0.463525 1.42658 0
      vertex 0.749999 1.29904 0
    endloop
  endfacet
  facet normal 0 0 -1
    outer loop
      vertex 0.156792 -1.49178 0
      vertex 0.463525 1.42658 0
      vertex 0.463525 -1.42658 0
    endloop
  endfacet
  facet normal 0 0 -1
    outer loop
      vertex 0.156792 -1.49178 0
      vertex 0.156792 1.49178 0
      vertex 0.463525 1.42658 0
    endloop
  endfacet
  facet normal 0 0 -1
    outer loop
      vertex -0.156793 -1.49178 0
      vertex 0.156792 1.49178 0
      vertex 0.156792 -1.49178 0
    endloop
  endfacet
  facet normal 0 0 -1
    outer loop
      vertex -0.156793 -1.49178 0
      vertex -0.156793 1.49178 0
      vertex 0.156792 1.49178 0
    endloop
  endfacet
  facet normal 0 0 -1
    outer loop
      vertex -0.463526 -1.42658 0
      vertex -0.156793 1.49178 0
      vertex -0.156793 -1.49178 0
    endloop
  endfacet
  facet normal 0 0 -1
    outer loop
      vertex -0.463526 -1.42658 0
      vertex -0.463526 1.42658 0
      vertex -0.156793 1.49178 0
    endloop
  endfacet
  facet normal 0 0 -1
    outer loop
      vertex -0.750001 -1.29904 0
      vertex -0.463526 1.42658 0
      vertex -0.463526 -1.42658 0
    endloop
  endfacet
  facet normal 0 0 -1
    outer loop
      vertex -0.750001 -1.29904 0
      vertex -0.750001 1.29904 0
      vertex -0.463526 1.42658 0
    endloop
  endfacet
  facet normal 0 0 -1
    outer loop
      vertex -1.0037 -1.11472 0
      vertex -0.750001 1.29904 0
      vertex -0.750001 -1.29904 0
    endloop
  endfacet
  facet normal 0 0 -1
    outer loop
      vertex -1.0037 -1.11472 0
      vertex -1.0037 1.11472 0
      vertex -0.750001 1.29904 0
    endloop
  endfacet
  facet normal 0 0 -1
    outer loop
      vertex -1.21353 -0.881678 0
      vertex -1.0037 1.11472 0
      vertex -1.0037 -1.11472 0
    endloop
  endfacet
  facet normal 0 0 -1
    outer loop
      vertex -1.21353 -0.881678 0
      vertex -1.21353 0.881677 0
      vertex -1.0037 1.11472 0
    endloop
  endfacet
  facet normal 0 0 -1
    outer loop
      vertex -1.37032 -0.610105 0
      vertex -1.21353 0.881677 0
      vertex -1.21353 -0.881678 0
    endloop
  endfacet
  facet normal 0 0 -1
    outer loop
      vertex -1.37032 -0.610105 0
      vertex -1.37032 0.610105 0
      vertex -1.21353 0.881677 0
    endloop
  endfacet
  facet normal 0 0 -1
    outer loop
      vertex -1.46722 -0.311868 0
      vertex -1.37032 0.610105 0
      vertex -1.37032 -0.610105 0
    endloop
  endfacet
  facet normal 0 0 -1
    outer loop
      vertex -1.46722 -0.311868 0
      vertex -1.46722 0.311867 0
      vertex -1.37032 0.610105 0
    endloop
  endfacet
  facet normal 0 -0 -1
    outer loop
      vertex -1.46722 0.311867 0
      vertex -1.46722 -0.311868 0
      vertex -1.5 -5.72205e-07 0
    endloop
  endfacet
  facet normal 0.866026 -0.5 0
    outer loop
      vertex 1.21353 -0.881678 8.45
      vertex 1.37032 -0.610105 0
      vertex 1.37032 -0.610105 8.45
    endloop
  endfacet
  facet normal 0.866026 -0.5 0
    outer loop
      vertex 1.37032 -0.610105 0
      vertex 1.21353 -0.881678 8.45
      vertex 1.21353 -0.881678 0
    endloop
  endfacet
  facet normal -0.866026 -0.5 0
    outer loop
      vertex -1.21353 -0.881678 0
      vertex -1.37032 -0.610105 8.45
      vertex -1.37032 -0.610105 0
    endloop
  endfacet
  facet normal -0.866026 -0.5 0
    outer loop
      vertex -1.37032 -0.610105 8.45
      vertex -1.21353 -0.881678 0
      vertex -1.21353 -0.881678 8.45
    endloop
  endfacet
  facet normal -0.994522 -0.104529 0
    outer loop
      vertex -1.46722 -0.311868 0
      vertex -1.5 -5.72205e-07 8.45
      vertex -1.5 -5.72205e-07 0
    endloop
  endfacet
  facet normal -0.994522 -0.104529 0
    outer loop
      vertex -1.5 -5.72205e-07 8.45
      vertex -1.46722 -0.311868 0
      vertex -1.46722 -0.311868 8.45
    endloop
  endfacet
  facet normal 0.207914 -0.978147 0
    outer loop
      vertex 0.156792 -1.49178 0
      vertex 0.463525 -1.42658 8.45
      vertex 0.156792 -1.49178 8.45
    endloop
  endfacet
  facet normal 0.207914 -0.978147 0
    outer loop
      vertex 0.463525 -1.42658 8.45
      vertex 0.156792 -1.49178 0
      vertex 0.463525 -1.42658 0
    endloop
  endfacet
  facet normal 0.587784 -0.809018 0
    outer loop
      vertex 0.749999 -1.29904 0
      vertex 1.0037 -1.11472 8.45
      vertex 0.749999 -1.29904 8.45
    endloop
  endfacet
  facet normal 0.587784 -0.809018 0
    outer loop
      vertex 1.0037 -1.11472 8.45
      vertex 0.749999 -1.29904 0
      vertex 1.0037 -1.11472 0
    endloop
  endfacet
  facet normal 0.951057 -0.309016 0
    outer loop
      vertex 1.37032 -0.610105 8.45
      vertex 1.46722 -0.311868 0
      vertex 1.46722 -0.311868 8.45
    endloop
  endfacet
  facet normal 0.951057 -0.309016 0
    outer loop
      vertex 1.46722 -0.311868 0
      vertex 1.37032 -0.610105 8.45
      vertex 1.37032 -0.610105 0
    endloop
  endfacet
  facet normal -0.587785 -0.809017 0
    outer loop
      vertex -1.0037 -1.11472 0
      vertex -0.750001 -1.29904 8.45
      vertex -1.0037 -1.11472 8.45
    endloop
  endfacet
  facet normal -0.587785 -0.809017 -0
    outer loop
      vertex -0.750001 -1.29904 8.45
      vertex -1.0037 -1.11472 0
      vertex -0.750001 -1.29904 0
    endloop
  endfacet
  facet normal -0.406736 -0.913546 0
    outer loop
      vertex -0.750001 -1.29904 0
      vertex -0.463526 -1.42658 8.45
      vertex -0.750001 -1.29904 8.45
    endloop
  endfacet
  facet normal -0.406736 -0.913546 -0
    outer loop
      vertex -0.463526 -1.42658 8.45
      vertex -0.750001 -1.29904 0
      vertex -0.463526 -1.42658 0
    endloop
  endfacet
  facet normal -0.207914 -0.978147 0
    outer loop
      vertex -0.463526 -1.42658 0
      vertex -0.156793 -1.49178 8.45
      vertex -0.463526 -1.42658 8.45
    endloop
  endfacet
  facet normal -0.207914 -0.978147 -0
    outer loop
      vertex -0.156793 -1.49178 8.45
      vertex -0.463526 -1.42658 0
      vertex -0.156793 -1.49178 0
    endloop
  endfacet
  facet normal -0.743144 -0.669131 0
    outer loop
      vertex -1.0037 -1.11472 0
      vertex -1.21353 -0.881678 8.45
      vertex -1.21353 -0.881678 0
    endloop
  endfacet
  facet normal -0.743144 -0.669131 0
    outer loop
      vertex -1.21353 -0.881678 8.45
      vertex -1.0037 -1.11472 0
      vertex -1.0037 -1.11472 8.45
    endloop
  endfacet
  facet normal -0.951057 -0.309016 0
    outer loop
      vertex -1.37032 -0.610105 0
      vertex -1.46722 -0.311868 8.45
      vertex -1.46722 -0.311868 0
    endloop
  endfacet
  facet normal -0.951057 -0.309016 0
    outer loop
      vertex -1.46722 -0.311868 8.45
      vertex -1.37032 -0.610105 0
      vertex -1.37032 -0.610105 8.45
    endloop
  endfacet
  facet normal 0.406736 -0.913546 0
    outer loop
      vertex 0.463525 -1.42658 0
      vertex 0.749999 -1.29904 8.45
      vertex 0.463525 -1.42658 8.45
    endloop
  endfacet
  facet normal 0.406736 -0.913546 0
    outer loop
      vertex 0.749999 -1.29904 8.45
      vertex 0.463525 -1.42658 0
      vertex 0.749999 -1.29904 0
    endloop
  endfacet
  facet normal 0.743146 -0.669129 0
    outer loop
      vertex 1.0037 -1.11472 8.45
      vertex 1.21353 -0.881678 0
      vertex 1.21353 -0.881678 8.45
    endloop
  endfacet
  facet normal 0.743146 -0.669129 0
    outer loop
      vertex 1.21353 -0.881678 0
      vertex 1.0037 -1.11472 8.45
      vertex 1.0037 -1.11472 0
    endloop
  endfacet
endsolid OpenSCAD_Model
